HIERARCHY
ROOT Hips
{
  OFFSET 5.84602e-005 68.8428 3.50346
  CHANNELS 6 Xposition Yposition Zposition Zrotation Xrotation Yrotation
  JOINT Spine
  {
    OFFSET 0 8.597 -4.6522
    CHANNELS 3 Zrotation Xrotation Yrotation
    JOINT Spine1
    {
      OFFSET 0 7.8454 0.4098
      CHANNELS 3 Zrotation Xrotation Yrotation
      JOINT Spine2
      {
        OFFSET 0 9.7078 -2.1609
        CHANNELS 3 Zrotation Xrotation Yrotation
        JOINT Neck
        {
          OFFSET 0 21.8761 -0.4549
          CHANNELS 3 Zrotation Xrotation Yrotation
          JOINT Head
          {
            OFFSET 0 12.3537 3.3602
            CHANNELS 3 Zrotation Xrotation Yrotation
            End Site
            {
              OFFSET 0.0001 18.9506 0.5657
            }
          }
        }
        JOINT LeftShoulder
        {
          OFFSET 2.2086 21.1115 7.2329
          CHANNELS 3 Zrotation Xrotation Yrotation
          JOINT LeftArm
          {
            OFFSET 13.1193 3.0282 -4.8998
            CHANNELS 3 Zrotation Xrotation Yrotation
            JOINT LeftForeArm
            {
              OFFSET 27.4081 -0.0973053 -0.2375
              CHANNELS 3 Zrotation Xrotation Yrotation
              JOINT LeftHand
              {
                OFFSET 22.8641 0.0662994 -0.1369
                CHANNELS 3 Zrotation Xrotation Yrotation
                JOINT LeftHandIndex1
                {
                  OFFSET 8.8614 0.775009 2.4612
                  CHANNELS 3 Zrotation Xrotation Yrotation
                  JOINT LeftHandIndex2
                  {
                    OFFSET 3.3146 -0.808304 0.5841
                    CHANNELS 3 Zrotation Xrotation Yrotation
                    JOINT LeftHandIndex3
                    {
                      OFFSET 2.2628 -0.552002 0.3989
                      CHANNELS 3 Zrotation Xrotation Yrotation
                      End Site
                      {
                        OFFSET 1.6102 -0.4807 0.2612
                      }
                    }
                  }
                }
                JOINT LeftHandMiddle1
                {
                  OFFSET 8.9937 0.895004 0.2143
                  CHANNELS 3 Zrotation Xrotation Yrotation
                  JOINT LeftHandMiddle2
                  {
                    OFFSET 4.0984 0.0113983 -0.0242
                    CHANNELS 3 Zrotation Xrotation Yrotation
                    JOINT LeftHandMiddle3
                    {
                      OFFSET 2.2716 0.00689697 -0.0138001
                      CHANNELS 3 Zrotation Xrotation Yrotation
                      End Site
                      {
                        OFFSET 2.0404 -0.1441 0.0027
                      }
                    }
                  }
                }
                JOINT LeftHandRing1
                {
                  OFFSET 8.5234 0.597198 -2.0164
                  CHANNELS 3 Zrotation Xrotation Yrotation
                  JOINT LeftHandRing2
                  {
                    OFFSET 3.7188 -0.188293 -0.2328
                    CHANNELS 3 Zrotation Xrotation Yrotation
                    JOINT LeftHandRing3
                    {
                      OFFSET 2.1191 -0.106598 -0.1332
                      CHANNELS 3 Zrotation Xrotation Yrotation
                      End Site
                      {
                        OFFSET 1.8737 -0.2304 -0.0886
                      }
                    }
                  }
                }
                JOINT LeftHandPinky1
                {
                  OFFSET 7.9094 -0.601089 -3.4825
                  CHANNELS 3 Zrotation Xrotation Yrotation
                  JOINT LeftHandPinky2
                  {
                    OFFSET 2.2874 -0.477005 -0.6314
                    CHANNELS 3 Zrotation Xrotation Yrotation
                    JOINT LeftHandPinky3
                    {
                      OFFSET 1.6774 -0.349396 -0.4633
                      CHANNELS 3 Zrotation Xrotation Yrotation
                      End Site
                      {
                        OFFSET 1.4888 -0.4091 -0.3416
                      }
                    }
                  }
                }
                JOINT LeftHandThumb1
                {
                  OFFSET 1.833 -1.3875 1.3896
                  CHANNELS 3 Zrotation Xrotation Yrotation
                  JOINT LeftHandThumb2
                  {
                    OFFSET 3.4129 -1.121 2.5732
                    CHANNELS 3 Zrotation Xrotation Yrotation
                    JOINT LeftHandThumb3
                    {
                      OFFSET 2.2474 -0.804199 1.6192
                      CHANNELS 3 Zrotation Xrotation Yrotation
                      End Site
                      {
                        OFFSET 1.6527 -0.5689 1.1317
                      }
                    }
                  }
                }
              }
            }
          }
        }
        JOINT RightShoulder
        {
          OFFSET -2.2086 21.1115 7.2329
          CHANNELS 3 Zrotation Xrotation Yrotation
          JOINT RightArm
          {
            OFFSET -13.1216 3.0287 -4.9007
            CHANNELS 3 Zrotation Xrotation Yrotation
            JOINT RightForeArm
            {
              OFFSET -27.4081 -0.0973053 -0.2375
              CHANNELS 3 Zrotation Xrotation Yrotation
              JOINT RightHand
              {
                OFFSET -22.8641 0.0664063 -0.1369
                CHANNELS 3 Zrotation Xrotation Yrotation
                JOINT RightHandIndex1
                {
                  OFFSET -8.8614 0.774994 2.4612
                  CHANNELS 3 Zrotation Xrotation Yrotation
                  JOINT RightHandIndex2
                  {
                    OFFSET -3.3146 -0.808304 0.5841
                    CHANNELS 3 Zrotation Xrotation Yrotation
                    JOINT RightHandIndex3
                    {
                      OFFSET -2.2628 -0.552002 0.3989
                      CHANNELS 3 Zrotation Xrotation Yrotation
                      End Site
                      {
                        OFFSET -1.6102 -0.4807 0.2612
                      }
                    }
                  }
                }
                JOINT RightHandMiddle1
                {
                  OFFSET -8.9937 0.894989 0.2143
                  CHANNELS 3 Zrotation Xrotation Yrotation
                  JOINT RightHandMiddle2
                  {
                    OFFSET -4.0984 0.0113983 -0.0242
                    CHANNELS 3 Zrotation Xrotation Yrotation
                    JOINT RightHandMiddle3
                    {
                      OFFSET -2.2716 0.00691223 -0.0138001
                      CHANNELS 3 Zrotation Xrotation Yrotation
                      End Site
                      {
                        OFFSET -2.0404 -0.1441 0.0027
                      }
                    }
                  }
                }
                JOINT RightHandRing1
                {
                  OFFSET -8.5234 0.597198 -2.0164
                  CHANNELS 3 Zrotation Xrotation Yrotation
                  JOINT RightHandRing2
                  {
                    OFFSET -3.7188 -0.188309 -0.2328
                    CHANNELS 3 Zrotation Xrotation Yrotation
                    JOINT RightHandRing3
                    {
                      OFFSET -2.1191 -0.106598 -0.1332
                      CHANNELS 3 Zrotation Xrotation Yrotation
                      End Site
                      {
                        OFFSET -1.8737 -0.2304 -0.0886
                      }
                    }
                  }
                }
                JOINT RightHandPinky1
                {
                  OFFSET -7.9094 -0.601105 -3.4825
                  CHANNELS 3 Zrotation Xrotation Yrotation
                  JOINT RightHandPinky2
                  {
                    OFFSET -2.2874 -0.477005 -0.6314
                    CHANNELS 3 Zrotation Xrotation Yrotation
                    JOINT RightHandPinky3
                    {
                      OFFSET -1.6774 -0.349396 -0.4633
                      CHANNELS 3 Zrotation Xrotation Yrotation
                      End Site
                      {
                        OFFSET -1.4888 -0.4091 -0.3416
                      }
                    }
                  }
                }
                JOINT RightHandThumb1
                {
                  OFFSET -1.833 -1.38751 1.3896
                  CHANNELS 3 Zrotation Xrotation Yrotation
                  JOINT RightHandThumb2
                  {
                    OFFSET -3.41299 -1.12099 2.5732
                    CHANNELS 3 Zrotation Xrotation Yrotation
                    JOINT RightHandThumb3
                    {
                      OFFSET -2.24741 -0.804108 1.6192
                      CHANNELS 3 Zrotation Xrotation Yrotation
                      End Site
                      {
                        OFFSET -1.6527 -0.5689 1.1317
                      }
                    }
                  }
                }
              }
            }
          }
        }
      }
    }
  }
  JOINT RightUpLeg
  {
    OFFSET -9.1966 3.8861 -0.7581
    CHANNELS 3 Zrotation Xrotation Yrotation
    JOINT RightLeg
    {
      OFFSET -0.7359 -41.0265 0
      CHANNELS 3 Zrotation Xrotation Yrotation
      JOINT RightFoot
      {
        OFFSET 0 -40.2855 0
        CHANNELS 3 Zrotation Xrotation Yrotation
        JOINT RightToeBase
        {
          OFFSET 0 -5.6122 11.7359
          CHANNELS 3 Zrotation Xrotation Yrotation
          End Site
          {
            OFFSET 0 0 7.8731
          }
        }
      }
    }
  }
  JOINT LeftUpLeg
  {
    OFFSET 9.1965 3.8864 -0.7581
    CHANNELS 3 Zrotation Xrotation Yrotation
    JOINT LeftLeg
    {
      OFFSET 0.7359 -41.0268 0
      CHANNELS 3 Zrotation Xrotation Yrotation
      JOINT LeftFoot
      {
        OFFSET 0 -40.2855 0
        CHANNELS 3 Zrotation Xrotation Yrotation
        JOINT LeftToeBase
        {
          OFFSET 0 -5.6122 11.7359
          CHANNELS 3 Zrotation Xrotation Yrotation
          End Site
          {
            OFFSET 0 0 7.8731
          }
        }
      }
    }
  }
}
MOTION
Frames:	4
Frame Time:	0.0333333
39.6283 1.50038 10.6933 -0 -87.1758 -0 -0.0483651 5.51289 -0.117469 -0.0859142 11.0259 -0.23186 -0.0859143 11.0259 -0.23186 6.02236e-007 -15.7589 1.69563e-007 -7.76756e-008 -14.9828 -1.0617e-007 11.5334 -0.865489 7.24361 -59.652 4.43385 22.596 27.9548 18.3927 -47.6415 -18.374 16.4264 -26.742 1.98785e-016 -2.03754e-015 -1.59028e-015 2.32975e-006 -2.0582e-007 -6.00718e-007 -1.39149e-015 -4.72114e-015 -0 1.98785e-016 -2.03754e-015 -1.59028e-015 -0.0145654 -8.74844e-005 -5.13335e-006 3.57812e-015 -6.41081e-015 1.43125e-014 1.98785e-016 -2.03754e-015 -1.59028e-015 -0.0187586 -0.00117568 4.94407e-005 -5.96354e-016 -2.78299e-015 -1.59028e-015 1.98785e-016 -2.03754e-015 -1.59028e-015 -0.0123544 -0.00327184 0.000676005 1.98785e-016 -3.47873e-015 -0 1.98785e-016 -2.03754e-015 -1.59028e-015 2.32975e-006 -2.0582e-007 -6.00718e-007 -1.39149e-015 -4.72114e-015 -0 -32.4158 25.3061 -11.3989 75.694 0.760105 -31.2759 -33.0758 8.2604 76.91 17.0536 14.6141 31.1586 -7.95139e-016 6.95746e-016 1.59028e-015 3.31043e-032 5.96354e-016 -3.18055e-015 -1.46211e-031 -2.6339e-015 -3.18055e-015 -7.95139e-016 6.95746e-016 1.59028e-015 0.015 -8.88526e-005 1.93479e-006 -1.59028e-015 5.96354e-015 -0 -7.95139e-016 6.95746e-016 1.59028e-015 0.0189828 -0.00118845 -6.53756e-005 -1.52331e-007 -1.3887e-007 -9.27184e-007 -7.95139e-016 6.95746e-016 1.59028e-015 0.0122673 -0.00324402 -0.000679018 -3.97569e-016 6.4605e-016 -3.18055e-015 -7.95139e-016 6.95746e-016 1.59028e-015 3.31043e-032 5.96354e-016 -3.18055e-015 -1.46211e-031 -2.6339e-015 -3.18055e-015 -61.8926 -42.3983 -29.6648 171.477 69.6079 -175.86 -47.1414 27.443 61.543 -1.83712e-008 -1.689e-006 1.35819e-007 28.5952 -12.2626 -26.5178 -7.06088 28.763 1.26979 12.2813 -0.271795 28.3975 1.27222e-014 4.77083e-015 -1.59028e-015 
39.6278 1.42723 10.6652 -0 -86.6079 -0 -0.0482203 5.48065 -0.117556 -0.0856756 10.9614 -0.232057 -0.0856756 10.9614 -0.232057 2.22741e-006 -15.6036 4.22515e-007 -4.31349e-009 -14.8555 2.8399e-008 11.2742 -1.09635 7.13766 -59.463 4.48043 22.55 27.8057 18.5594 -47.2504 -17.9263 16.2621 -27.0935 2.32981e-006 -2.05443e-007 -6.00599e-007 2.4186e-006 2.19695e-006 -1.42237e-006 -2.05443e-007 -2.32981e-006 -2.21986e-008 2.32981e-006 -2.05443e-007 -6.00599e-007 -0.0145969 -8.78596e-005 -2.50211e-006 -2.05366e-007 -2.32981e-006 -2.24952e-008 2.32981e-006 -2.05443e-007 -6.00599e-007 -0.0187272 -0.00117124 6.02377e-005 -2.05346e-007 -2.3298e-006 -2.25776e-008 2.32981e-006 -2.05443e-007 -6.00599e-007 -0.0122742 -0.00324738 0.00067432 -2.05393e-007 -2.32979e-006 -2.24459e-008 2.32981e-006 -2.05443e-007 -6.00599e-007 2.4186e-006 2.19695e-006 -1.42237e-006 -2.05443e-007 -2.32981e-006 -2.21986e-008 -31.8419 25.1642 -11.5807 75.4453 0.860798 -31.1365 -33.0689 8.31056 76.6053 16.6126 14.4613 31.3784 2.32396e-006 2.26845e-007 -6.15498e-007 2.5508e-006 -2.09711e-006 -5.96772e-007 2.32396e-006 2.26845e-007 -6.15498e-007 2.32396e-006 2.26845e-007 -6.15498e-007 0.0149931 -9.36316e-005 4.02397e-006 2.4746e-006 3.64927e-007 3.10557e-007 2.32396e-006 2.26845e-007 -6.15498e-007 0.0189942 -0.00118954 -6.77108e-005 2.32395e-006 2.26744e-007 -6.1556e-007 2.32396e-006 2.26845e-007 -6.15498e-007 0.0122757 -0.00325065 -0.000675062 2.32394e-006 2.26793e-007 -6.15588e-007 2.32396e-006 2.26845e-007 -6.15498e-007 2.5508e-006 -2.09711e-006 -5.96772e-007 2.32396e-006 2.26845e-007 -6.15498e-007 -62.3632 -42.677 -30.3701 171.481 69.6088 -175.86 -47.1414 27.4427 61.5428 1.88164e-008 -3.3642e-006 -4.35573e-008 28.6269 -12.679 -26.5484 -6.98913 28.5854 1.2445 12.1792 -0.107277 28.6622 5.31646e-007 -1.90272e-006 -4.40662e-006 
39.6274 1.36709 10.6417 -0 -86.1428 -0 -0.0481009 5.45416 -0.117625 -0.0854791 10.9085 -0.232216 -0.0854791 10.9085 -0.232216 -6.58754e-007 -15.4481 1.2879e-006 1.86643e-007 -14.7282 1.39566e-007 11.0618 -1.2848 7.04989 -59.3083 4.51839 22.5121 27.6826 18.6949 -46.9296 -17.5608 16.125 -27.3798 -2.32986e-006 2.05159e-007 6.00516e-007 -1.06235e-006 1.26751e-006 3.11437e-007 -2.32986e-006 2.05159e-007 6.00516e-007 -2.32986e-006 2.05159e-007 6.00516e-007 -0.0145897 -8.75767e-005 -4.94309e-006 -2.21539e-006 1.3276e-007 1.44353e-006 -2.32986e-006 2.05159e-007 6.00516e-007 -0.0187841 -0.00118011 5.45954e-005 -2.32985e-006 2.05062e-007 6.00573e-007 -2.32986e-006 2.05159e-007 6.00516e-007 -0.0122833 -0.00325021 0.000682082 -2.32983e-006 2.05109e-007 6.00604e-007 -2.32986e-006 2.05159e-007 6.00516e-007 -1.06235e-006 1.26751e-006 3.11437e-007 -2.32986e-006 2.05159e-007 6.00516e-007 -31.3727 25.0465 -11.7279 75.2416 0.942574 -31.0219 -33.0629 8.35258 76.3562 16.2521 14.3346 31.5569 -1.98785e-015 5.86415e-015 -9.54166e-015 -2.78299e-015 8.54774e-015 -9.54166e-015 -1.59028e-015 -1.68967e-015 -9.54166e-015 -1.98785e-015 5.86415e-015 -9.54166e-015 0.0149857 -9.08923e-005 2.17515e-006 1.19271e-015 -2.98177e-015 -0 -1.98785e-015 5.86415e-015 -9.54166e-015 0.0189955 -0.00119248 -5.68711e-005 -3.97569e-016 9.0447e-015 1.59028e-015 -1.98785e-015 5.86415e-015 -9.54166e-015 0.0122622 -0.00324964 -0.000675947 6.06912e-032 2.18663e-015 -1.59028e-015 -1.98785e-015 5.86415e-015 -9.54166e-015 -2.78299e-015 8.54774e-015 -9.54166e-015 -1.59028e-015 -1.68967e-015 -9.54166e-015 -62.7443 -42.9095 -30.9463 171.477 69.6069 -175.861 -47.1414 27.4426 61.5426 -7.41276e-008 -1.70307e-006 4.50561e-007 28.6528 -13.0198 -26.5729 -6.93054 28.4397 1.22401 12.0952 0.0272362 28.8791 0 1.59028e-015 -0 
39.6271 1.30672 10.6177 -0 -85.6773 -0 -0.0479812 5.42771 -0.117694 -0.0852821 10.8555 -0.232373 -0.0852821 10.8555 -0.232374 -2.8202e-006 -15.2923 6.12111e-008 -1.12825e-007 -14.6008 -1.79458e-008 10.849 -1.47294 6.96138 -59.1536 4.55623 22.4742 27.5587 18.8299 -46.6081 -17.196 15.9861 -27.6652 -3.97569e-016 3.37934e-015 3.18055e-015 -9.93923e-016 2.98177e-016 3.18055e-015 -1.59028e-015 -2.83268e-015 3.18055e-015 -3.97569e-016 3.37934e-015 3.18055e-015 -0.0146472 -8.75284e-005 -8.0735e-007 3.97569e-016 2.6339e-015 1.59028e-015 -3.97569e-016 3.37934e-015 3.18055e-015 -0.0187433 -0.0011735 5.80701e-005 -5.96354e-016 -6.5102e-015 -1.59028e-015 -3.97569e-016 3.37934e-015 3.18055e-015 -0.0122338 -0.00323806 0.000668308 -7.95139e-016 -9.24349e-015 -0 -3.97569e-016 3.37934e-015 3.18055e-015 -9.93923e-016 2.98177e-016 3.18055e-015 -1.59028e-015 -2.83268e-015 3.18055e-015 -30.9041 24.9276 -11.874 75.0377 1.02393 -30.907 -33.0567 8.3947 76.1071 15.8921 14.2067 31.7347 -2.32406e-006 -2.26236e-007 6.15326e-007 1.19271e-015 5.96354e-016 -0 7.95139e-016 3.97569e-016 -0 -2.32406e-006 -2.26236e-007 6.15326e-007 0.014988 -9.21401e-005 6.82035e-006 -0 -2.23633e-015 -0 -2.32406e-006 -2.26236e-007 6.15326e-007 0.0189972 -0.00118959 -4.74061e-005 1.19271e-015 -4.52235e-015 3.18055e-015 -2.32406e-006 -2.26236e-007 6.15326e-007 0.0122651 -0.003247 -0.000675799 -1.19271e-015 3.42904e-015 -1.59028e-015 -2.32406e-006 -2.26236e-007 6.15326e-007 1.19271e-015 5.96354e-016 -0 7.95139e-016 3.97569e-016 -0 -63.1396 -43.1321 -31.5336 171.482 69.6076 -175.861 -47.1414 27.4425 61.5425 -2.6495e-011 -1.68452e-006 3.04991e-008 28.6786 -13.3608 -26.5972 -6.87219 28.2942 1.20379 12.0108 0.161305 29.0962 -3.18055e-015 0 1.59028e-015 
